# Blender v2.79 (sub 0) OBJ File: ''
# www.blender.org
mtllib innerPortal.mtl
o Door__Left_Untitled.001
v -0.000062 -0.004945 -0.025047
v -0.000062 0.096003 -0.025047
v -0.000062 0.227236 -0.025047
v -0.000062 0.358468 -0.025047
v -0.000062 0.489701 -0.025047
v -0.000062 0.620934 -0.025047
v -0.000062 0.752166 -0.025047
v -0.000062 0.883399 -0.025047
v -0.000062 1.014632 -0.025047
v -0.000062 1.145864 -0.025047
v -0.000062 1.277097 -0.025047
v -0.000062 1.408330 -0.025048
v -0.177307 1.390873 -0.025048
v -0.347742 1.339172 -0.025048
v -0.504816 1.255215 -0.025048
v -0.642492 1.142227 -0.025048
v -0.755480 1.004551 -0.025048
v -0.839438 0.847478 -0.025048
v -0.891139 0.677043 -0.025047
v -0.908596 0.499797 -0.025047
v -0.891139 0.322550 -0.025047
v -0.839438 0.152116 -0.025047
v -0.755481 -0.004958 -0.025047
v -0.000062 -0.004945 0.025427
v -0.177307 1.390873 0.025427
v -0.347742 1.339172 0.025426
v -0.504816 1.255215 0.025426
v -0.642492 1.142227 0.025426
v -0.755480 1.004551 0.025426
v -0.839438 0.847478 0.025426
v -0.891139 0.677043 0.025427
v -0.839438 0.152116 0.025427
v -0.755481 -0.004958 0.025427
v -0.000062 1.408330 0.025427
v -0.000062 0.005149 0.025427
v -0.763877 0.010749 0.025427
v -0.763877 0.010749 -0.025047
v -0.000062 0.005149 -0.025047
v -0.642492 1.142227 0.008602
v -0.642492 1.142227 -0.008223
v -0.000062 1.408330 0.008602
v -0.000062 1.408330 -0.008223
v -0.347742 1.339172 0.008602
v -0.347742 1.339172 -0.008223
v -0.755481 -0.004958 -0.008223
v -0.755481 -0.004958 0.008602
v -0.908596 0.499797 0.008602
v -0.908596 0.499797 -0.008223
v -0.891139 0.322550 0.008602
v -0.891139 0.322550 -0.008223
v -0.839438 0.152116 0.008602
v -0.839438 0.152116 -0.008223
v -0.504816 1.255215 -0.008223
v -0.504816 1.255215 0.008602
v -0.177307 1.390873 0.008602
v -0.177307 1.390873 -0.008223
v -0.839438 0.847478 0.008602
v -0.839438 0.847478 -0.008223
v -0.755480 1.004551 0.008602
v -0.755480 1.004551 -0.008223
v -0.891139 0.677043 0.008602
v -0.891139 0.677043 -0.008223
v -0.000062 -0.004945 0.008602
v -0.000062 -0.004945 -0.008222
v -0.763877 0.010749 0.008602
v -0.763877 0.010749 -0.008223
vt 0.890836 0.073393
vt 0.883111 0.073393
vt 0.883111 0.008506
vt 0.953202 0.073401
vt 0.945477 0.073401
vt 0.945477 0.001299
vt 0.890836 0.232975
vt 0.883111 0.232975
vt 0.883111 0.151620
vt 0.890836 0.314329
vt 0.883111 0.314329
vt 0.890836 0.464654
vt 0.883111 0.464654
vt 0.883111 0.392559
vt 0.427056 0.645346
vt 0.777641 0.642779
vt 0.773790 0.649986
vt 0.890836 0.392559
vt 0.001991 0.649986
vt 0.001991 0.589750
vt 0.083346 0.641970
vt 0.001991 0.168107
vt 0.001991 0.107871
vt 0.410991 0.151620
vt 0.001991 0.529514
vt 0.161576 0.618242
vt 0.001991 0.228343
vt 0.419002 0.232975
vt 0.953202 0.232978
vt 0.945477 0.232978
vt 0.945477 0.151628
vt 0.001991 0.288574
vt 0.410991 0.314329
vt 0.890836 0.579705
vt 0.883111 0.579705
vt 0.883111 0.527844
vt 0.001991 0.348810
vt 0.387259 0.392559
vt 0.953202 0.151628
vt 0.890836 0.527844
vt 0.348721 0.464654
vt 0.296864 0.527844
vt 0.001991 0.005935
vt 0.001991 0.001303
vt 0.348725 0.001297
vt 0.890836 0.151620
vt 0.001991 0.409046
vt 0.233671 0.579705
vt 0.001991 0.047639
vt 0.387259 0.073393
vt 0.001991 0.469278
vt 0.929737 0.001299
vt 0.937462 0.001299
vt 0.937462 0.348033
vt 0.352576 0.008506
vt 0.976664 0.001297
vt 0.983871 0.001297
vt 0.983871 0.009022
vt 0.906279 0.008506
vt 0.898561 0.008506
vt 0.898561 0.001297
vt 0.890836 0.008506
vt 0.914294 0.001299
vt 0.922015 0.001299
vt 0.922015 0.348033
vt 0.929737 0.348033
vt 0.898561 0.151620
vt 0.906279 0.527844
vt 0.898561 0.527844
vt 0.898561 0.464654
vt 0.968645 0.151628
vt 0.960928 0.151628
vt 0.960928 0.073401
vt 0.906279 0.579705
vt 0.898561 0.579705
vt 0.960928 0.232978
vt 0.906279 0.392559
vt 0.898561 0.392559
vt 0.898561 0.314329
vt 0.906279 0.464654
vt 0.906279 0.314329
vt 0.898561 0.232975
vt 0.968645 0.073401
vt 0.960928 0.001299
vt 0.953202 0.001299
vt 0.906279 0.073393
vt 0.898561 0.073393
vt 0.427056 0.649986
vt 0.976664 0.009022
vt 0.980036 0.013013
vt 0.987243 0.013013
vt 0.980036 0.020730
vt 0.890836 0.001297
vt 0.914294 0.348033
vt 0.968645 0.232978
vt 0.968645 0.001299
vn -0.8819 -0.4714 0.0000
vn -0.4714 0.8819 0.0000
vn -0.9952 -0.0980 0.0000
vn -0.9952 0.0980 0.0000
vn -0.8819 0.4714 0.0000
vn -0.0000 0.0000 1.0000
vn -0.9569 0.2903 0.0000
vn 0.0000 -0.0000 -1.0000
vn -0.0980 0.9952 0.0000
vn -0.6344 0.7730 0.0000
vn -0.2903 0.9569 0.0000
vn -0.7730 0.6344 0.0000
vn -0.9569 -0.2903 0.0000
vn 0.0000 -1.0000 0.0000
usemtl Doors
s 1
f 52/1/1 22/2/1 37/3/1
f 44/4/2 14/5/2 15/6/2
f 48/7/3 20/8/3 21/9/3
f 62/10/4 19/11/4 20/8/4
f 60/12/5 17/13/5 18/14/5
f 35/15/6 36/16/6 33/17/6
f 58/18/7 18/14/7 19/11/7
f 12/19/8 11/20/8 13/21/8
f 4/22/8 3/23/8 21/24/8
f 10/25/8 14/26/8 13/21/8
f 5/27/8 4/22/8 20/28/8
f 42/29/9 12/30/9 13/31/9
f 6/32/8 5/27/8 19/33/8
f 53/34/10 15/35/10 16/36/10
f 7/37/8 6/32/8 18/38/8
f 56/39/11 13/31/11 14/5/11
f 40/40/12 16/36/12 17/13/12
f 7/37/8 17/41/8 16/42/8
f 38/43/8 1/44/8 23/45/8
f 50/46/13 21/9/13 22/2/13
f 8/47/8 16/42/8 15/48/8
f 3/23/8 2/49/8 22/50/8
f 9/51/8 15/48/8 14/26/8
f 45/52/14 23/53/14 1/54/14
f 2/49/8 38/43/8 37/55/8
f 45/56/1 66/57/1 37/58/1
f 36/59/1 65/60/1 46/61/1
f 46/61/1 65/60/1 66/62/1
f 33/63/14 46/64/14 63/65/14
f 46/64/14 45/52/14 64/66/14
f 49/67/13 50/46/13 52/1/13
f 28/68/12 39/69/12 59/70/12
f 39/69/12 40/40/12 60/12/12
f 25/71/11 55/72/11 43/73/11
f 55/72/11 56/39/11 44/4/11
f 27/74/10 54/75/10 39/69/10
f 54/75/10 53/34/10 40/40/10
f 41/76/9 42/29/9 56/39/9
f 30/77/7 57/78/7 61/79/7
f 57/78/7 58/18/7 62/10/7
f 29/80/5 59/70/5 57/78/5
f 59/70/5 60/12/5 58/18/5
f 31/81/4 61/79/4 47/82/4
f 61/79/4 62/10/4 48/7/4
f 47/82/3 48/7/3 50/46/3
f 26/83/2 43/73/2 54/84/2
f 43/73/2 44/4/2 53/85/2
f 32/86/1 51/87/1 65/60/1
f 51/87/1 52/1/1 66/62/1
f 66/62/1 52/1/1 37/3/1
f 53/85/2 44/4/2 15/6/2
f 50/46/3 48/7/3 21/9/3
f 48/7/4 62/10/4 20/8/4
f 58/18/5 60/12/5 18/14/5
f 24/88/6 35/15/6 33/17/6
f 62/10/7 58/18/7 19/11/7
f 20/28/8 4/22/8 21/24/8
f 11/20/8 10/25/8 13/21/8
f 19/33/8 5/27/8 20/28/8
f 56/39/9 42/29/9 13/31/9
f 18/38/8 6/32/8 19/33/8
f 40/40/10 53/34/10 16/36/10
f 17/41/8 7/37/8 18/38/8
f 44/4/11 56/39/11 14/5/11
f 60/12/12 40/40/12 17/13/12
f 8/47/8 7/37/8 16/42/8
f 37/55/8 38/43/8 23/45/8
f 52/1/13 50/46/13 22/2/13
f 9/51/8 8/47/8 15/48/8
f 21/24/8 3/23/8 22/50/8
f 10/25/8 9/51/8 14/26/8
f 64/66/14 45/52/14 1/54/14
f 22/50/8 2/49/8 37/55/8
f 23/89/1 45/56/1 37/58/1
f 33/90/1 36/91/1 46/92/1
f 45/93/1 46/61/1 66/62/1
f 24/94/14 33/63/14 63/65/14
f 63/65/14 46/64/14 64/66/14
f 51/87/13 49/67/13 52/1/13
f 29/80/12 28/68/12 59/70/12
f 59/70/12 39/69/12 60/12/12
f 26/83/11 25/71/11 43/73/11
f 43/73/11 55/72/11 44/4/11
f 28/68/10 27/74/10 39/69/10
f 39/69/10 54/75/10 40/40/10
f 25/71/9 34/95/9 55/72/9
f 55/72/9 41/76/9 56/39/9
f 31/81/7 30/77/7 61/79/7
f 61/79/7 57/78/7 62/10/7
f 30/77/5 29/80/5 57/78/5
f 57/78/5 59/70/5 58/18/5
f 47/82/4 61/79/4 48/7/4
f 49/67/3 47/82/3 50/46/3
f 27/96/2 26/83/2 54/84/2
f 54/84/2 43/73/2 53/85/2
f 36/59/1 32/86/1 65/60/1
f 65/60/1 51/87/1 66/62/1
o Door_Right_Untitled.003
v -0.000062 -0.004945 0.025424
v -0.000062 1.277097 0.025424
v -0.000062 1.408330 0.025425
v 0.177182 1.390873 0.025425
v 0.347617 1.339172 0.025425
v 0.504691 1.255215 0.025425
v 0.642367 1.142227 0.025425
v 0.755355 1.004551 0.025425
v 0.839313 0.847478 0.025425
v 0.891014 0.677043 0.025425
v 0.908472 0.499797 0.025425
v 0.891015 0.322550 0.025425
v 0.839314 0.152116 0.025424
v 0.755356 -0.004958 0.025424
v -0.000062 0.096003 -0.025050
v -0.000062 0.227236 -0.025050
v -0.000062 0.358468 -0.025050
v -0.000062 0.489701 -0.025050
v -0.000062 0.620934 -0.025050
v -0.000062 0.752166 -0.025050
v -0.000062 0.883399 -0.025050
v -0.000062 1.014632 -0.025050
v -0.000062 1.145864 -0.025050
v -0.000062 1.277097 -0.025050
v -0.000062 -0.004945 -0.025050
v 0.177182 1.390873 -0.025049
v 0.347617 1.339172 -0.025049
v 0.504691 1.255215 -0.025049
v 0.642367 1.142227 -0.025049
v 0.755355 1.004551 -0.025049
v 0.839313 0.847478 -0.025049
v 0.891014 0.677043 -0.025049
v 0.908472 0.499797 -0.025049
v 0.891015 0.322550 -0.025050
v 0.839314 0.152116 -0.025050
v 0.755356 -0.004958 -0.025050
v -0.000062 1.408330 -0.025050
v -0.000062 0.005149 -0.025050
v 0.763752 0.010749 -0.025050
v 0.763752 0.010749 0.025424
v -0.000062 0.005149 0.025424
v 0.642367 1.142227 -0.008225
v 0.642367 1.142227 0.008600
v -0.000062 1.277097 -0.008225
v -0.000062 1.277097 0.008600
v -0.000062 1.408330 -0.008225
v -0.000062 1.408330 0.008600
v 0.347617 1.339172 -0.008225
v 0.347617 1.339172 0.008600
v 0.755356 -0.004958 0.008600
v 0.755356 -0.004958 -0.008225
v 0.908472 0.499797 -0.008225
v 0.908472 0.499797 0.008600
v 0.891015 0.322550 -0.008225
v 0.891015 0.322550 0.008600
v 0.839314 0.152116 -0.008225
v 0.839314 0.152116 0.008600
v 0.504691 1.255215 0.008600
v 0.504691 1.255215 -0.008225
v 0.177182 1.390873 -0.008225
v 0.177182 1.390873 0.008600
v 0.839313 0.847478 -0.008225
v 0.839313 0.847478 0.008600
v 0.755355 1.004551 -0.008225
v 0.755355 1.004551 0.008600
v 0.891014 0.677043 -0.008225
v 0.891014 0.677043 0.008600
v -0.000062 -0.004945 -0.008225
v -0.000062 -0.004945 0.008599
v 0.763752 0.010749 -0.008225
v 0.763752 0.010749 0.008600
vt 0.890846 0.073395
vt 0.883120 0.073395
vt 0.883120 0.008506
vt 0.953206 0.073395
vt 0.945480 0.073395
vt 0.945480 0.001299
vt 0.890846 0.232979
vt 0.883120 0.232979
vt 0.883120 0.151623
vt 0.890846 0.314335
vt 0.883120 0.314335
vt 0.890846 0.464663
vt 0.883120 0.464663
vt 0.883120 0.392567
vt 0.427059 0.645358
vt 0.777649 0.642791
vt 0.773798 0.649998
vt 0.508413 0.009311
vt 0.586645 0.033051
vt 0.427059 0.121765
vt 0.427059 0.001299
vt 0.427059 0.061540
vt 0.658741 0.071578
vt 0.427059 0.182006
vt 0.721935 0.123436
vt 0.427059 0.242247
vt 0.773798 0.186631
vt 0.427059 0.302473
vt 0.812332 0.258734
vt 0.427059 0.362713
vt 0.836064 0.336962
vt 0.427059 0.422954
vt 0.844076 0.418314
vt 0.427059 0.483195
vt 0.836064 0.499667
vt 0.427059 0.543421
vt 0.812332 0.577910
vt 0.890846 0.392567
vt 0.953206 0.232983
vt 0.945480 0.232983
vt 0.945480 0.151631
vt 0.890846 0.579716
vt 0.883120 0.579716
vt 0.883120 0.527854
vt 0.953206 0.151631
vt 0.890846 0.527854
vt 0.001991 0.005935
vt 0.001991 0.001303
vt 0.348730 0.001297
vt 0.890846 0.151623
vt 0.929745 0.001299
vt 0.937467 0.001299
vt 0.937467 0.348038
vt 0.427059 0.603662
vt 0.976668 0.001297
vt 0.983875 0.001297
vt 0.983875 0.009023
vt 0.906289 0.008506
vt 0.898563 0.008506
vt 0.898563 0.001297
vt 0.890846 0.008506
vt 0.914298 0.001299
vt 0.922024 0.001299
vt 0.922024 0.348038
vt 0.929745 0.348038
vt 0.906289 0.151623
vt 0.898563 0.151623
vt 0.898563 0.073395
vt 0.906289 0.527854
vt 0.898563 0.527854
vt 0.898563 0.464663
vt 0.968648 0.151631
vt 0.960923 0.151631
vt 0.960923 0.073395
vt 0.906289 0.579716
vt 0.898563 0.579716
vt 0.968648 0.232983
vt 0.960923 0.232983
vt 0.906289 0.392567
vt 0.898563 0.392567
vt 0.898563 0.314335
vt 0.906289 0.464663
vt 0.906289 0.314335
vt 0.898563 0.232979
vt 0.906289 0.232979
vt 0.968648 0.073395
vt 0.960923 0.001299
vt 0.953206 0.001299
vt 0.906289 0.073395
vt 0.875101 0.649992
vt 0.867380 0.649992
vt 0.875101 0.589755
vt 0.427059 0.649998
vt 0.352581 0.008506
vt 0.976668 0.009023
vt 0.990804 0.001297
vt 0.998011 0.001297
vt 0.990804 0.009023
vt 0.890846 0.001297
vt 0.914298 0.348038
vt 0.859658 0.649992
vt 0.851933 0.649992
vt 0.859658 0.589755
vt 0.867380 0.589755
vt 0.968648 0.001299
vn 0.8819 -0.4714 0.0000
vn 0.4714 0.8819 0.0000
vn 0.9952 -0.0980 0.0000
vn 0.9952 0.0980 0.0000
vn 0.8819 0.4714 0.0000
vn 0.0000 0.0000 -1.0000
vn 0.9569 0.2903 0.0000
vn 0.0980 0.9952 -0.0000
vn 0.6344 0.7730 0.0000
vn 0.2903 0.9569 0.0000
vn 0.7730 0.6344 0.0000
vn -0.0000 -0.0000 1.0000
vn 0.9569 -0.2903 0.0000
vn -0.0000 -1.0000 -0.0000
vn -1.0000 0.0000 -0.0000
usemtl Doors
s 1
f 123/97/15 79/98/15 106/99/15
f 115/100/16 71/101/16 72/102/16
f 119/103/17 77/104/17 78/105/17
f 133/106/18 76/107/18 77/104/18
f 131/108/19 74/109/19 75/110/19
f 104/111/20 105/112/20 102/113/20
f 92/114/20 93/115/20 89/116/20
f 103/117/20 92/114/20 90/118/20
f 93/115/20 94/119/20 88/120/20
f 94/119/20 95/121/20 87/122/20
f 95/121/20 96/123/20 86/124/20
f 86/124/20 96/123/20 97/125/20
f 85/126/20 97/125/20 98/127/20
f 84/128/20 98/127/20 99/129/20
f 83/130/20 99/129/20 100/131/20
f 82/132/20 100/131/20 101/133/20
f 129/134/21 75/110/21 76/107/21
f 113/135/22 69/136/22 70/137/22
f 124/138/23 72/139/23 73/140/23
f 127/141/24 70/137/24 71/101/24
f 109/142/25 73/140/25 74/109/25
f 107/143/26 67/144/26 80/145/26
f 121/146/27 78/105/27 79/98/27
f 116/147/28 80/148/28 67/149/28
f 81/150/20 101/133/20 105/112/20
f 116/151/15 137/152/15 106/153/15
f 105/154/15 136/155/15 117/156/15
f 117/156/15 136/155/15 137/157/15
f 102/158/28 117/159/28 134/160/28
f 117/159/28 116/147/28 135/161/28
f 100/162/27 120/163/27 122/164/27
f 120/163/27 121/146/27 123/97/27
f 95/165/25 108/166/25 130/167/25
f 108/166/25 109/142/25 131/108/25
f 92/168/24 126/169/24 114/170/24
f 126/169/24 127/141/24 115/100/24
f 94/171/23 125/172/23 108/166/23
f 125/172/23 124/138/23 109/142/23
f 103/173/22 112/174/22 126/169/22
f 112/174/22 113/135/22 127/141/22
f 97/175/21 128/176/21 132/177/21
f 128/176/21 129/134/21 133/106/21
f 96/178/19 130/167/19 128/176/19
f 130/167/19 131/108/19 129/134/19
f 98/179/18 132/177/18 118/180/18
f 132/177/18 133/106/18 119/103/18
f 99/181/17 118/180/17 120/163/17
f 118/180/17 119/103/17 121/146/17
f 93/182/16 114/170/16 125/183/16
f 114/170/16 115/100/16 124/184/16
f 101/185/15 122/164/15 136/155/15
f 122/164/15 123/97/15 137/157/15
f 137/157/15 123/97/15 106/99/15
f 124/184/16 115/100/16 72/102/16
f 121/146/17 119/103/17 78/105/17
f 119/103/18 133/106/18 77/104/18
f 69/186/29 113/187/29 68/188/29
f 129/134/19 131/108/19 75/110/19
f 91/189/20 104/111/20 102/113/20
f 90/118/20 92/114/20 89/116/20
f 89/116/20 93/115/20 88/120/20
f 88/120/20 94/119/20 87/122/20
f 87/122/20 95/121/20 86/124/20
f 85/126/20 86/124/20 97/125/20
f 84/128/20 85/126/20 98/127/20
f 83/130/20 84/128/20 99/129/20
f 82/132/20 83/130/20 100/131/20
f 81/150/20 82/132/20 101/133/20
f 133/106/21 129/134/21 76/107/21
f 127/141/22 113/135/22 70/137/22
f 109/142/23 124/138/23 73/140/23
f 115/100/24 127/141/24 71/101/24
f 131/108/25 109/142/25 74/109/25
f 106/190/26 107/143/26 80/145/26
f 123/97/27 121/146/27 79/98/27
f 135/161/28 116/147/28 67/149/28
f 104/111/20 81/150/20 105/112/20
f 80/191/15 116/151/15 106/153/15
f 102/192/15 105/193/15 117/194/15
f 116/195/15 117/156/15 137/157/15
f 91/196/28 102/158/28 134/160/28
f 134/160/28 117/159/28 135/161/28
f 101/185/27 100/162/27 122/164/27
f 122/164/27 120/163/27 123/97/27
f 96/178/25 95/165/25 130/167/25
f 130/167/25 108/166/25 131/108/25
f 93/182/24 92/168/24 114/170/24
f 114/170/24 126/169/24 115/100/24
f 95/165/23 94/171/23 108/166/23
f 108/166/23 125/172/23 109/142/23
f 92/168/22 103/173/22 126/169/22
f 126/169/22 112/174/22 127/141/22
f 98/179/21 97/175/21 132/177/21
f 132/177/21 128/176/21 133/106/21
f 97/175/19 96/178/19 128/176/19
f 128/176/19 130/167/19 129/134/19
f 112/197/29 103/198/29 110/199/29
f 113/187/29 112/197/29 111/200/29
f 99/181/18 98/179/18 118/180/18
f 118/180/18 132/177/18 119/103/18
f 100/162/17 99/181/17 120/163/17
f 120/163/17 118/180/17 121/146/17
f 94/201/16 93/182/16 125/183/16
f 125/183/16 114/170/16 124/184/16
f 105/154/15 101/185/15 136/155/15
f 136/155/15 122/164/15 137/157/15
